<svg width="50" height="53" viewBox="0 0 50 53" fill="none" xmlns="http://www.w3.org/2000/svg">
<rect width="50" height="53" rx="25" fill="#201C1D"/>
<path d="M23.5905 24.5828C24.0692 23.8217 24.3085 22.9337 24.3085 21.9188C24.3085 19.2548 22.1543 17.2251 19.7608 17.2251H12.8196C12.4605 17.2251 12.2212 17.4788 12.2212 17.8594V33.9702C12.2212 34.3508 12.4605 34.6045 12.8196 34.6045H20.4789C23.3511 34.6045 25.7446 32.1942 25.7446 29.1497C25.7446 27.2468 24.9069 25.5977 23.5905 24.5828ZM15.2131 20.5234H19.7608C20.5986 20.5234 21.1969 21.2845 21.1969 22.0457C21.1969 22.9337 20.4789 23.568 19.7608 23.568H15.2131V20.5234ZM20.5985 31.4331H15.2131V26.8662H20.5985C21.7953 26.8662 22.7527 27.8811 22.7527 29.1497C22.7527 30.4182 21.7953 31.4331 20.5985 31.4331Z" fill="#F5F5F5"/>
<path d="M39.0287 28.008C39.0287 24.2023 36.2762 21.1577 32.8056 21.1577C29.3349 21.1577 26.5824 24.2023 26.5824 28.008C26.5824 31.8137 29.3349 34.8582 32.8056 34.8582C34.8401 34.8582 36.7549 33.7165 37.9517 31.8137C38.0713 31.56 38.191 31.3062 38.3107 31.0525C38.4304 30.9257 38.3107 30.672 38.0713 30.672H35.0794C34.9597 30.672 34.9597 30.672 34.8401 30.7988C34.2417 31.4331 33.5236 31.6868 32.8056 31.6868C31.2498 31.6868 30.053 30.5451 29.694 28.896H38.4304C38.7894 28.896 39.0287 28.6422 39.0287 28.2617V28.008ZM32.8056 24.456C33.8827 24.456 34.8401 25.0903 35.4384 26.1051H30.1727C30.6514 25.0903 31.7285 24.456 32.8056 24.456Z" fill="#F5F5F5"/>
<path d="M35.3188 20.3965H29.8137C29.5743 20.3965 29.3349 20.1428 29.3349 19.8891V18.4937C29.3349 18.24 29.5743 17.9863 29.8137 17.9863H35.3188C35.5581 17.9863 35.7975 18.24 35.7975 18.4937V20.016C35.7975 20.1428 35.6778 20.3965 35.3188 20.3965Z" fill="#F5F5F5"/>
</svg>
