<svg width="50" height="53" viewBox="0 0 50 53" fill="none" xmlns="http://www.w3.org/2000/svg">
<rect width="50" height="53" rx="25" fill="#201C1D"/>
<path d="M32.7971 30.2003C33.453 29.505 33.5467 28.5118 32.9845 27.5186C32.516 26.724 31.6726 26.3267 30.7356 26.5253C30.3608 26.6247 29.986 26.8233 29.6112 27.1213C26.7065 29.2071 22.771 29.1077 19.8663 27.022C19.6789 26.9226 19.4915 26.8233 19.3041 26.724C18.2734 26.2274 17.2427 26.426 16.6804 27.4193C16.0245 28.4125 16.1182 29.5051 16.9615 30.399C17.1489 30.5976 17.3363 30.6969 17.43 30.8956L17.5238 30.9949C18.8356 32.0875 20.4285 32.7827 22.4899 33.0807L21.2718 34.3719C20.2411 35.4645 19.1167 36.6563 18.086 37.7489C17.8049 38.0469 17.43 38.5435 17.43 39.2387C17.43 40.1326 17.8986 41.0265 18.7419 41.4238C19.023 41.6225 19.3041 41.6225 19.5852 41.6225C20.0537 41.6225 20.6159 41.4238 20.9907 40.9272C22.3962 39.4374 23.5206 38.2455 24.6451 37.0536C24.7388 36.9543 24.7387 36.9543 24.7387 36.9543C24.7387 36.9543 24.8325 36.9543 24.8325 37.0536C25.5821 37.9475 26.4254 38.7421 27.175 39.636C27.5498 40.0333 27.9246 40.4306 28.2994 40.8279C28.7679 41.3245 29.1427 41.5232 29.7049 41.5232C30.5482 41.6225 31.4852 41.0265 31.86 40.1326C32.2348 39.338 32.0474 38.3448 31.3915 37.7489C30.4545 36.7556 29.5175 35.6631 28.4868 34.6699L26.8939 32.9814C27.7372 32.882 28.6742 32.6834 29.5175 32.2861C30.923 31.7895 31.9537 31.0942 32.7971 30.2003Z" fill="#F5F5F5"/>
<path d="M24.7387 27.4192C28.7679 27.4192 32.0474 24.0422 32.0474 19.7713C32.0474 17.6856 31.2978 15.6991 29.8923 14.2092C28.4868 12.7194 26.7065 11.9248 24.8324 11.9248C20.8033 11.9248 17.6175 15.4011 17.5237 19.5727C17.5237 21.6585 18.2734 23.5456 19.6789 25.0355C20.9907 26.6247 22.771 27.4192 24.7387 27.4192ZM22.6773 17.4869C23.2395 16.891 23.9891 16.593 24.7387 16.593C26.4254 16.593 27.6435 17.9835 27.6435 19.672C27.6435 21.4598 26.3317 22.751 24.7387 22.751C23.0521 22.751 21.834 21.3605 21.834 19.672C21.834 18.8774 22.1151 18.0829 22.6773 17.4869Z" fill="#F5F5F5"/>
<path d="M32.7971 30.2003C33.453 29.505 33.5467 28.5118 32.9845 27.5186C32.516 26.724 31.6726 26.3267 30.7356 26.5253C30.3608 26.6247 29.986 26.8233 29.6112 27.1213C26.7065 29.2071 22.771 29.1077 19.8663 27.022C19.6789 26.9226 19.4915 26.8233 19.3041 26.724C18.2734 26.2274 17.2427 26.426 16.6804 27.4193C16.0245 28.4125 16.1182 29.5051 16.9615 30.399C17.1489 30.5976 17.3363 30.6969 17.43 30.8956L17.5238 30.9949C18.8356 32.0875 20.4285 32.7827 22.4899 33.0807L21.2718 34.3719C20.2411 35.4645 19.1167 36.6563 18.086 37.7489C17.8049 38.0469 17.43 38.5435 17.43 39.2387C17.43 40.1326 17.8986 41.0265 18.7419 41.4238C19.023 41.6225 19.3041 41.6225 19.5852 41.6225C20.0537 41.6225 20.6159 41.4238 20.9907 40.9272C22.3962 39.4374 23.5206 38.2455 24.6451 37.0536C24.7388 36.9543 24.7387 36.9543 24.7387 36.9543C24.7387 36.9543 24.8325 36.9543 24.8325 37.0536C25.5821 37.9475 26.4254 38.7421 27.175 39.636C27.5498 40.0333 27.9246 40.4306 28.2994 40.8279C28.7679 41.3245 29.1427 41.5232 29.7049 41.5232C30.5482 41.6225 31.4852 41.0265 31.86 40.1326C32.2348 39.338 32.0474 38.3448 31.3915 37.7489C30.4545 36.7556 29.5175 35.6631 28.4868 34.6699L26.8939 32.9814C27.7372 32.882 28.6742 32.6834 29.5175 32.2861C30.923 31.7895 31.9537 31.0942 32.7971 30.2003Z" fill="#F5F5F5"/>
</svg>
