<svg width="50" height="53" viewBox="0 0 50 53" fill="none" xmlns="http://www.w3.org/2000/svg">
<path d="M50 25C50 11.1929 38.8071 0 25 0C11.1929 0 0 11.1929 0 25V28C0 41.8071 11.1929 53 25 53C38.8071 53 50 41.8071 50 28V25Z" fill="#201C1D"/>
<path fill-rule="evenodd" clip-rule="evenodd" d="M24.9618 13.5679C18.081 13.5679 12.5 19.4838 12.5 26.7774C12.5 32.6122 16.0933 37.5556 20.9862 39.3385C21.5979 39.4196 21.8272 39.0144 21.8272 38.6902C21.8272 38.366 21.8272 37.5556 21.8272 36.4211C18.3868 37.2315 17.6223 34.6382 17.6223 34.6382C17.0872 33.0985 16.2462 32.6933 16.2462 32.6933C15.0994 31.8829 16.3226 31.8829 16.3226 31.8829C17.5459 31.9639 18.2339 33.2605 18.2339 33.2605C19.3807 35.2865 21.1391 34.7192 21.8272 34.3951C21.9037 33.5037 22.2859 32.9364 22.5917 32.6122C19.8394 32.2881 16.9343 31.1535 16.9343 26.048C16.9343 24.5893 17.393 23.4547 18.2339 22.4822C18.1575 22.2391 17.6988 20.8614 18.3868 19.0786C18.3868 19.0786 19.4572 18.7544 21.8272 20.4563C22.8211 20.1321 23.8914 20.0511 24.9618 20.0511C26.0321 20.0511 27.1024 20.2131 28.0963 20.4563C30.4664 18.7544 31.5367 19.0786 31.5367 19.0786C32.2248 20.8614 31.7661 22.2391 31.6896 22.5633C32.4541 23.4547 32.9893 24.6703 32.9893 26.129C32.9893 31.2345 30.0841 32.2881 27.3318 32.6122C27.7905 33.0174 28.1728 33.8278 28.1728 35.0434C28.1728 36.8263 28.1728 38.204 28.1728 38.6902C28.1728 39.0144 28.4021 39.4196 29.0138 39.3385C33.9832 37.5556 37.5 32.6122 37.5 26.7774C37.4235 19.4838 31.8425 13.5679 24.9618 13.5679Z" fill="#F5F5F5"/>
</svg>
