<svg width="50" height="53" viewBox="0 0 50 53" fill="none" xmlns="http://www.w3.org/2000/svg">
<rect width="50" height="53" rx="25" fill="#201C1D"/>
<path d="M25 15.6446C28.3133 15.6446 28.7651 15.6446 30.1205 15.6446C31.3253 15.6446 31.9277 15.9639 32.3795 16.1235C32.9819 16.4428 33.4337 16.6024 33.8855 17.0813C34.3374 17.5602 34.6386 18.0392 34.7892 18.6777C34.9398 19.1566 35.0904 19.7952 35.241 21.0723C35.241 22.509 35.241 22.8283 35.241 26.5C35.241 30.1717 35.241 30.491 35.241 31.9277C35.241 33.2048 34.9398 33.8434 34.7892 34.3223C34.488 34.9608 34.3374 35.4398 33.8855 35.9187C33.4337 36.3976 32.9819 36.7169 32.3795 36.8765C31.9277 37.0361 31.3253 37.1958 30.1205 37.3554C28.7651 37.3554 28.4639 37.3554 25 37.3554C21.5361 37.3554 21.2349 37.3554 19.8795 37.3554C18.6747 37.3554 18.0723 37.0361 17.6205 36.8765C17.0181 36.5572 16.5663 36.3976 16.1145 35.9187C15.6627 35.4398 15.3614 34.9608 15.2108 34.3223C15.0602 33.8434 14.9096 33.2048 14.759 31.9277C14.759 30.491 14.759 30.1717 14.759 26.5C14.759 22.8283 14.759 22.509 14.759 21.0723C14.759 19.7952 15.0602 19.1566 15.2108 18.6777C15.512 18.0392 15.6627 17.5602 16.1145 17.0813C16.5663 16.6024 17.0181 16.2831 17.6205 16.1235C18.0723 15.9639 18.6747 15.8042 19.8795 15.6446C21.2349 15.6446 21.6867 15.6446 25 15.6446ZM25 13.25C21.5361 13.25 21.2349 13.25 19.8795 13.25C18.5241 13.25 17.6205 13.5693 16.8675 13.8886C16.1145 14.2078 15.3614 14.6867 14.6084 15.4849C13.8554 16.2831 13.5542 16.9217 13.1024 17.8795C12.8012 18.6777 12.6506 19.6355 12.5 21.0723C12.5 22.509 12.5 22.988 12.5 26.5C12.5 30.1717 12.5 30.491 12.5 31.9277C12.5 33.3645 12.8012 34.3223 13.1024 35.1205C13.4036 35.9187 13.8554 36.7169 14.6084 37.5151C15.3614 38.3133 15.9639 38.6325 16.8675 39.1115C17.6205 39.4307 18.5241 39.5904 19.8795 39.75C21.2349 39.75 21.6867 39.75 25 39.75C28.3133 39.75 28.7651 39.75 30.1205 39.75C31.4759 39.75 32.3795 39.4307 33.1325 39.1115C33.8855 38.7922 34.6386 38.3133 35.3916 37.5151C36.1446 36.7169 36.4458 36.0783 36.8976 35.1205C37.1988 34.3223 37.3494 33.3645 37.5 31.9277C37.5 30.491 37.5 30.0121 37.5 26.5C37.5 22.988 37.5 22.509 37.5 21.0723C37.5 19.6355 37.1988 18.6777 36.8976 17.8795C36.5964 17.0813 36.1446 16.2831 35.3916 15.4849C34.6386 14.6867 34.0361 14.3675 33.1325 13.8886C32.3795 13.5693 31.4759 13.4096 30.1205 13.25C28.7651 13.25 28.4639 13.25 25 13.25Z" fill="#F5F5F5"/>
<path d="M25 19.6355C21.3855 19.6355 18.5241 22.6687 18.5241 26.5C18.5241 30.3313 21.3855 33.3645 25 33.3645C28.6145 33.3645 31.4759 30.3313 31.4759 26.5C31.4759 22.6687 28.6145 19.6355 25 19.6355ZM25 30.9699C22.741 30.9699 20.7831 29.0542 20.7831 26.5C20.7831 24.1054 22.5904 22.0301 25 22.0301C27.259 22.0301 29.2169 23.9458 29.2169 26.5C29.2169 28.8946 27.259 30.9699 25 30.9699Z" fill="#F5F5F5"/>
<path d="M31.6265 21.0723C32.4583 21.0723 33.1325 20.3576 33.1325 19.4759C33.1325 18.5942 32.4583 17.8795 31.6265 17.8795C30.7948 17.8795 30.1205 18.5942 30.1205 19.4759C30.1205 20.3576 30.7948 21.0723 31.6265 21.0723Z" fill="#F5F5F5"/>
</svg>
