<svg width="50" height="53" viewBox="0 0 50 53" fill="none" xmlns="http://www.w3.org/2000/svg">
<path d="M50 25C50 11.1929 38.8071 0 25 0V0C11.1929 0 0 11.1929 0 25V28C0 41.8071 11.1929 53 25 53V53C38.8071 53 50 41.8071 50 28V25Z" fill="#201C1D"/>
<path d="M29.777 13.25C24.8119 13.25 20.773 17.7141 20.773 23.2017C20.773 28.6723 24.8119 33.1193 29.777 33.1193C34.7265 33.1193 38.75 28.6723 38.75 23.2017C38.7551 17.7141 34.7265 13.25 29.777 13.25ZM13.75 39.75H18.1491V13.25H13.75" fill="white"/>
</svg>
