<svg width="50" height="53" viewBox="0 0 50 53" fill="none" xmlns="http://www.w3.org/2000/svg">
<path d="M50 25C50 11.1929 38.8071 0 25 0C11.1929 0 0 11.1929 0 25V28C0 41.8071 11.1929 53 25 53C38.8071 53 50 41.8071 50 28V25Z" fill="#201C1D"/>
<path d="M25 13.25C18.125 13.25 12.5 19.2125 12.5 26.5C12.5 31.9656 15.625 36.6031 20 38.5906C20 37.5969 20 36.6031 20.1562 35.6094C20.4687 34.45 21.7187 28.3219 21.7187 28.3219C21.7187 28.3219 21.25 27.4938 21.25 26.1688C21.25 24.1813 22.3438 22.6906 23.5938 22.6906C24.6875 22.6906 25.3125 23.5187 25.3125 24.6781C25.3125 25.8375 24.5312 27.6594 24.2187 29.3156C23.9062 30.6406 24.8438 31.8 26.25 31.8C28.5938 31.8 30.1563 28.6531 30.1563 24.6781C30.1563 21.6969 28.2812 19.5438 25 19.5438C21.25 19.5438 18.9063 22.525 18.9063 25.8375C18.9063 26.9969 19.2188 27.825 19.6875 28.4875C19.8438 28.8188 20 28.8188 19.8437 29.15C19.8437 29.3156 19.6875 29.9781 19.5312 30.1438C19.375 30.475 19.2188 30.6406 18.9063 30.475C17.1875 29.6469 16.4062 27.6594 16.4062 25.3406C16.4062 21.5312 19.375 17.0594 25.3125 17.0594C30.1562 17.0594 33.2812 20.7031 33.2812 24.6781C33.2812 29.8125 30.625 33.7875 26.5625 33.7875C25.1562 33.7875 23.9062 32.9594 23.4375 32.1312C23.4375 32.1312 22.6562 35.1125 22.5 35.775C22.1875 36.7688 21.7188 37.7625 21.25 38.5906C22.3438 38.9219 23.5937 39.0875 24.8437 39.0875C31.7187 39.0875 37.3437 33.125 37.3437 25.8375C37.5 19.2125 31.875 13.25 25 13.25Z" fill="#F5F5F5"/>
</svg>
