<svg width="50" height="53" viewBox="0 0 50 53" fill="none" xmlns="http://www.w3.org/2000/svg">
<rect width="50" height="53" rx="25" fill="#201C1D"/>
<path d="M37.8977 27.9151C37.983 27.1924 38.0682 26.56 38.0682 25.8373C38.0682 18.61 32.5284 12.6475 25.625 12.6475C24.9432 12.6475 24.3466 12.7379 23.6648 12.8282C22.5568 12.1958 21.3636 11.9248 20.1705 11.9248C15.9091 11.9248 12.5 15.5384 12.5 20.0555C12.5 21.3203 12.7557 22.585 13.3523 23.7595C13.267 24.4822 13.1818 25.1146 13.1818 25.8373C13.1818 33.0646 18.7216 39.0271 25.625 39.0271C26.3068 39.0271 26.9034 38.9367 27.5852 38.8464C28.6932 39.3884 29.8864 39.7498 31.0795 39.7498C35.3409 39.7498 38.75 36.1362 38.75 31.6191C38.75 30.3544 38.4091 29.0896 37.8977 27.9151ZM30.8239 30.6254C30.5682 31.1674 30.2273 31.6191 29.7159 31.9805C29.2045 32.3419 28.6932 32.6129 28.0114 32.7936C27.3295 32.9742 26.5625 33.0646 25.7102 33.0646C23.9205 33.0646 22.4716 32.6129 21.4489 31.7998C20.8523 31.2578 20.3409 30.6254 20.0852 29.8123C19.7443 29.0896 20.3409 28.1862 21.1932 28.1862H21.4489C21.9602 28.1862 22.4716 28.5475 22.642 28.9992C22.8125 29.4509 23.0682 29.8123 23.4091 30.0833C23.9205 30.535 24.6875 30.7157 25.625 30.7157C26.4773 30.7157 27.1591 30.535 27.6705 30.264C28.1818 29.993 28.4375 29.4509 28.4375 28.9089C28.4375 28.6379 28.3523 28.4572 28.267 28.2765C28.1818 28.0958 27.9261 27.9151 27.7557 27.8248C27.5 27.6441 27.2443 27.5538 26.8182 27.4634C26.4773 27.3731 26.0511 27.1924 25.5398 27.1021L25.0284 26.9214C24.4318 26.7407 23.75 26.56 23.2386 26.3794C22.642 26.1987 22.1307 25.9276 21.7045 25.6566C21.2784 25.3856 20.9375 25.0242 20.6818 24.4822C20.4261 24.0305 20.3409 23.3981 20.3409 22.6754C20.3409 21.9526 20.5114 21.3203 20.767 20.7782C21.0227 20.2362 21.4489 19.7845 21.875 19.5134C22.3864 19.1521 22.8977 18.8811 23.5795 18.7907C24.1761 18.61 24.858 18.5197 25.625 18.5197C26.4773 18.5197 27.1591 18.61 27.8409 18.7907C28.5227 18.9714 29.0341 19.2424 29.5455 19.6941C30.0568 20.0555 30.3977 20.5072 30.6534 21.1396C31.0795 21.9526 30.483 23.0367 29.5455 23.0367H29.2898C28.7784 23.0367 28.3523 22.7657 28.0966 22.314C27.9261 22.043 27.7557 21.772 27.5 21.5009C27.0739 21.1396 26.392 20.9589 25.625 20.9589C24.858 20.9589 24.2614 21.1396 23.8352 21.4106C23.4091 21.6816 23.2386 22.1333 23.2386 22.585C23.2386 22.8561 23.3239 23.0367 23.4091 23.2174C23.4943 23.3981 23.6648 23.5788 23.9205 23.6691C24.1761 23.7595 24.4318 23.9401 24.7727 24.0305C25.1136 24.1208 25.5398 24.2112 26.0511 24.3919C26.5625 24.4822 26.9886 24.6629 27.5 24.7532C27.9261 24.8436 28.3523 25.0242 28.7784 25.1146C29.2045 25.2953 29.5455 25.4759 29.8864 25.6566C30.2273 25.8373 30.483 26.1083 30.7386 26.3794C30.9943 26.6504 31.1648 27.0117 31.25 27.3731C31.4205 27.7345 31.4205 28.2765 31.4205 28.8186C31.25 29.4509 31.0795 30.0833 30.8239 30.6254Z" fill="#F5F5F5"/>
</svg>
