<svg width="50" height="53" viewBox="0 0 50 53" fill="none" xmlns="http://www.w3.org/2000/svg">
<g clip-path="url(#clip0_245_267)">
<rect width="50" height="53" rx="25" fill="#201C1D"/>
<path d="M37.4703 18.8858C35.7286 18.8857 34.0584 18.1523 32.8269 16.8469C31.5954 15.5415 30.9035 13.7709 30.9036 11.9248H26.2119V31.3988C26.211 32.2867 25.9465 33.1518 25.4559 33.8714C24.9653 34.591 24.2735 35.1287 23.4785 35.4083C22.6835 35.6879 21.8257 35.6952 21.0266 35.4291C20.2274 35.163 19.5276 34.637 19.0262 33.9258C18.5249 33.2145 18.2474 32.3541 18.2332 31.4663C18.2189 30.5786 18.4686 29.7086 18.9469 28.9797C19.4252 28.2508 20.1077 27.7 20.8979 27.4052C21.688 27.1105 22.5456 27.0868 23.3491 27.3376V22.5032C21.6415 22.2592 19.9043 22.5731 18.3694 23.4031C16.8346 24.2332 15.5751 25.5398 14.7593 27.1485C13.9435 28.7572 13.6101 30.5915 13.8036 32.4064C13.9971 34.2213 14.7084 35.9304 15.8424 37.3055C16.9764 38.6806 18.4792 39.6563 20.1501 40.1022C21.821 40.5481 23.5805 40.4431 25.1936 39.8012C26.8067 39.1592 28.1967 38.0109 29.1779 36.5096C30.1592 35.0082 30.6849 33.2253 30.685 31.3988L30.8219 21.5553C32.7496 23.0554 35.0794 23.8625 37.4707 23.8587L37.4703 18.8858Z" fill="#F5F5F5"/>
</g>
<defs>
<clipPath id="clip0_245_267">
<rect width="50" height="53" fill="white"/>
</clipPath>
</defs>
</svg>
