<svg width="50" height="53" viewBox="0 0 50 53" fill="none" xmlns="http://www.w3.org/2000/svg">
<rect width="50" height="53" rx="25" fill="#201C1D"/>
<path d="M38.25 19.7426C37.375 20.1401 36.375 20.4051 35.375 20.5376C36.375 19.8751 37.25 18.8151 37.625 17.6226C36.625 18.2851 35.625 18.6826 34.375 18.9476C33.5 17.8876 32.125 17.2251 30.75 17.2251C28 17.2251 25.75 19.6101 25.75 22.5251C25.75 22.9226 25.75 23.3201 25.875 23.7176C21.75 23.4526 18 21.3326 15.5 18.1526C15.125 18.9476 14.875 19.8751 14.875 20.8026C14.875 22.6576 15.75 24.2476 17.125 25.1751C16.25 25.1751 15.5 24.9101 14.875 24.5126C14.875 27.0301 16.625 29.2826 18.875 29.6801C18.5 29.8126 18 29.8126 17.5 29.8126C17.125 29.8126 16.875 29.8126 16.5 29.6801C17.125 31.8001 19 33.3901 21.25 33.3901C19.5 34.8476 17.375 35.6426 15 35.6426C14.625 35.6426 14.25 35.6426 13.75 35.5101C16 36.9676 18.625 37.8951 21.5 37.8951C30.75 37.8951 35.75 29.8126 35.75 22.7901V22.1276C36.75 21.7301 37.625 20.8026 38.25 19.7426Z" fill="#F5F5F5"/>
</svg>
