<svg width="50" height="53" viewBox="0 0 50 53" fill="none" xmlns="http://www.w3.org/2000/svg">
<path d="M50 25C50 11.1929 38.8071 0 25 0C11.1929 0 0 11.1929 0 25V28C0 41.8071 11.1929 53 25 53C38.8071 53 50 41.8071 50 28V25Z" fill="#201C1D"/>
<path d="M18.7533 15.6152L14.2891 20.3474V37.3831H19.6462V42.1152L24.1105 37.3831H27.6819L35.7176 28.8652V15.6152H18.7533ZM33.9319 27.9188L30.3605 31.7045H26.7891L23.6641 35.017V31.7045H19.6462V17.5081H33.9319V27.9188Z" fill="#F5F5F5"/>
<path d="M31.2533 20.8206H29.4676V26.4992H31.2533V20.8206Z" fill="#F5F5F5"/>
<path d="M26.3426 20.8206H24.5569V26.4992H26.3426V20.8206Z" fill="#F5F5F5"/>
</svg>
