<svg width="50" height="53" viewBox="0 0 50 53" fill="none" xmlns="http://www.w3.org/2000/svg">
<rect width="50" height="53" rx="25" fill="#201C1D"/>
<path d="M32.8174 12.6481C28.053 11.6837 23.1054 11.6837 18.341 12.6481C16.2336 13.1304 13.5766 15.8308 13.1185 17.9526C12.2938 22.0997 12.2938 26.3433 13.1185 30.4904C13.6682 32.6122 16.3253 35.3127 18.341 35.7949C18.4326 35.7949 18.5242 35.8913 18.5242 35.9878V42.0638C18.5242 42.3531 18.8907 42.546 19.074 42.2567L21.8226 39.2669C21.8226 39.2669 24.0216 36.8558 24.3881 36.47C24.3881 36.47 24.4797 36.3736 24.5713 36.3736C27.32 36.47 30.1603 36.1807 32.909 35.6984C35.0164 35.2162 37.6734 32.5158 38.1315 30.394C38.9562 26.2469 38.9562 22.0033 38.1315 17.8562C37.5818 15.8308 34.9247 13.1304 32.8174 12.6481ZM32.909 30.7798C32.4509 31.7442 31.9012 32.5158 30.9849 32.998C30.7101 33.0944 30.4352 33.1909 30.1603 33.2873C29.7938 33.1909 29.519 33.0944 29.2441 32.998C26.3122 31.7442 23.5635 30.0082 21.3645 27.5006C20.1734 26.054 19.1656 24.4144 18.341 22.6784C17.9745 21.8104 17.608 21.0388 17.3331 20.1708C17.0582 19.3993 17.5164 18.6277 17.9745 18.049C18.4326 17.4704 18.9823 17.0846 19.6237 16.7953C20.0818 16.5059 20.5399 16.6988 20.9064 17.0846C21.6394 18.049 22.3724 19.0135 22.9221 20.0744C23.2886 20.7495 23.197 21.5211 22.5556 22.0033C22.3724 22.0997 22.2808 22.1962 22.0975 22.3891C22.0059 22.4855 21.8226 22.5819 21.731 22.7748C21.5478 23.0642 21.5478 23.3535 21.6394 23.6428C22.3724 25.8611 23.7467 27.5971 25.8541 28.5615C26.2205 28.7544 26.4954 28.8509 26.9535 28.8509C27.5949 28.7544 27.8698 27.9829 28.3279 27.5971C28.786 27.2113 29.3357 27.2113 29.8855 27.5006C30.3436 27.79 30.8017 28.1757 31.3514 28.5615C31.8096 28.9473 32.2677 29.2366 32.7258 29.6224C33.0007 29.8153 33.0923 30.2975 32.909 30.7798ZM29.0609 23.5464C28.8776 23.5464 28.9692 23.5464 29.0609 23.5464C28.6944 23.5464 28.6027 23.3535 28.5111 23.0642C28.5111 22.8713 28.5111 22.582 28.4195 22.3891C28.3279 22.0033 28.1446 21.6175 27.7781 21.3282C27.5949 21.2317 27.4116 21.1353 27.2284 21.0388C26.9535 20.9424 26.7703 20.9424 26.4954 20.9424C26.2206 20.8459 26.1289 20.6531 26.1289 20.3637C26.1289 20.1708 26.4038 19.9779 26.587 19.9779C28.053 20.0744 29.1525 20.9424 29.3357 22.7748C29.3357 22.8713 29.3357 23.0642 29.3357 23.1606C29.3357 23.3535 29.2441 23.5464 29.0609 23.5464ZM28.1446 19.3028C27.6865 19.1099 27.2284 18.917 26.6787 18.8206C26.4954 18.8206 26.2206 18.7242 26.0373 18.7242C25.7624 18.7242 25.5792 18.5313 25.6708 18.2419C25.6708 17.9526 25.8541 17.7597 26.1289 17.8562C27.0452 17.9526 27.8698 18.1455 28.6944 18.5313C30.3436 19.3993 31.2598 20.8459 31.5347 22.7748C31.5347 22.8713 31.5347 22.9677 31.5347 23.0642C31.5347 23.2571 31.5347 23.45 31.5347 23.7393C31.5347 23.8357 31.5347 23.9322 31.5347 24.0286C31.4431 24.4144 30.8017 24.5108 30.7101 24.0286C30.7101 23.9322 30.6185 23.7393 30.6185 23.6428C30.6185 22.7748 30.4352 21.9068 30.0687 21.1353C29.519 20.2673 28.8776 19.6886 28.1446 19.3028ZM33.0923 25.0895C32.8174 25.0895 32.6342 24.8002 32.6342 24.5108C32.6342 23.9322 32.5425 23.3535 32.4509 22.7748C32.0844 19.6886 29.7022 17.181 26.8619 16.6988C26.4038 16.6024 25.9457 16.6024 25.5792 16.5059C25.3043 16.5059 24.9378 16.5059 24.8462 16.1202C24.7546 15.8308 25.0294 15.5415 25.3043 15.5415C25.3959 15.5415 25.4876 15.5415 25.4876 15.5415C25.6708 15.5415 29.2441 15.6379 25.4876 15.5415C29.3357 15.6379 32.5425 18.3384 33.1839 22.3891C33.2755 23.0642 33.3671 23.7393 33.3671 24.5108C33.5504 24.8002 33.3671 25.0895 33.0923 25.0895Z" fill="#F5F5F5"/>
</svg>
