<svg width="50" height="53" viewBox="0 0 50 53" fill="none" xmlns="http://www.w3.org/2000/svg">
<rect width="50" height="53" rx="25" fill="#201C1D"/>
<path d="M26.2281 35.7751C16.8324 35.7751 11.4733 28.8119 11.25 17.2251H15.9564C16.111 25.7295 19.5807 29.3318 22.329 30.0745V17.2251H26.7606V24.5597C29.4745 24.244 32.3259 20.9017 33.2878 17.2251H37.7194C37.3569 19.1319 36.6344 20.9373 35.597 22.5284C34.5596 24.1195 33.2297 25.4621 31.6904 26.4722C33.4086 27.3952 34.9262 28.7016 36.1431 30.3052C37.36 31.9087 38.2485 33.7731 38.75 35.7751H33.8718C33.4216 34.0362 32.5067 32.4796 31.2417 31.3003C29.9767 30.1211 28.4179 29.3717 26.7606 29.1461V35.7751H26.2281Z" fill="#F5F5F5"/>
</svg>
