<svg width="50" height="53" viewBox="0 0 50 53" fill="none" xmlns="http://www.w3.org/2000/svg">
<rect width="50" height="53" rx="25" fill="#201C1D"/>
<path d="M34.9085 15.9826C32.439 13.374 29.1463 11.9248 25.6707 11.9248C18.4451 11.9248 12.5915 18.1081 12.5915 25.7407C12.5915 28.1561 13.2317 30.5714 14.3293 32.6003L12.5 39.7498L19.4512 37.8175C21.372 38.8803 23.4756 39.46 25.6707 39.46C32.8963 39.46 38.75 33.2766 38.75 25.6441C38.6585 22.0693 37.378 18.5912 34.9085 15.9826ZM31.9817 30.668C31.7073 31.4409 30.4268 32.2139 29.7866 32.3105C29.2378 32.4071 28.5061 32.4071 27.7744 32.2139C27.3171 32.0206 26.6768 31.8274 25.9451 31.441C22.6524 29.9917 20.5488 26.5136 20.3659 26.2238C20.1829 26.0305 18.9939 24.3881 18.9939 22.649C18.9939 20.91 19.8171 20.137 20.0915 19.7506C20.3659 19.3641 20.7317 19.3641 21.0061 19.3641C21.189 19.3641 21.4634 19.3641 21.6463 19.3641C21.8293 19.3641 22.1037 19.2675 22.378 19.9438C22.6524 20.6201 23.2927 22.3592 23.3841 22.4558C23.4756 22.649 23.4756 22.8423 23.3841 23.0355C23.2927 23.2287 23.2012 23.4219 23.0183 23.6152C22.8354 23.8084 22.6524 24.0982 22.561 24.1949C22.378 24.3881 22.1951 24.5813 22.378 24.8712C22.561 25.2576 23.2012 26.3204 24.2073 27.2865C25.4878 28.4459 26.4939 28.8324 26.8598 29.0256C27.2256 29.2188 27.4085 29.1222 27.5915 28.929C27.7744 28.7357 28.4146 27.9628 28.5976 27.5764C28.7805 27.1899 29.0549 27.2865 29.3293 27.3831C29.6037 27.4798 31.25 28.3493 31.5244 28.5425C31.8902 28.7357 32.0732 28.8324 32.1646 28.929C32.2561 29.2188 32.2561 29.8951 31.9817 30.668Z" fill="#F5F5F5"/>
</svg>
