<svg width="50" height="53" viewBox="0 0 50 53" fill="none" xmlns="http://www.w3.org/2000/svg">
<rect width="50" height="53" rx="25" fill="#201C1D"/>
<path fill-rule="evenodd" clip-rule="evenodd" d="M14.0781 35.8503C13.5878 35.6965 13.1404 35.423 12.7737 35.0527C12.407 34.6824 12.1318 34.2263 11.9712 33.7229C11.0537 31.1208 10.7818 20.2552 12.5489 18.1102C13.137 17.4124 13.9674 16.9828 14.8597 16.9146C19.6003 16.3872 34.2468 16.4575 35.929 17.0905C36.4021 17.2493 36.8344 17.5168 37.1934 17.8731C37.5524 18.2293 37.8288 18.665 38.0019 19.1475C39.0044 21.8375 39.0384 31.6131 37.866 34.1976C37.555 34.8704 37.0343 35.4153 36.3878 35.7448C34.6207 36.659 16.4229 36.6415 14.0781 35.8503ZM21.6053 30.7515L30.101 26.1803L21.6053 21.5738V30.7515Z" fill="#F5F5F5"/>
</svg>
