<svg width="30" height="30" viewBox="0 0 30 30" fill="none" xmlns="http://www.w3.org/2000/svg">
<path fill-rule="evenodd" clip-rule="evenodd" d="M14.1546 29.775C14.1546 29.775 14.1545 29.775 15 28.9285L14.1546 29.775C14.6455 30.075 15.3545 30.075 15.8454 29.775L15 28.9285C15.8455 29.775 15.8454 29.775 15.8454 29.775V29.7643H15.8591L15.8864 29.7428C15.9273 29.7214 15.9682 29.7 16.0091 29.6572C16.1182 29.5929 16.2681 29.4964 16.4727 29.3679C16.8545 29.1107 17.4 28.7357 18.0545 28.2535C19.3636 27.3 21.1228 25.9285 22.8682 24.2571C26.3318 20.9786 30 16.3606 30 11.4535C30 5.09993 23.25 0 15 0C6.75 0 0 5.09993 0 11.4535C0 16.3606 3.66815 20.9786 7.13179 24.2571C8.87724 25.9285 10.6364 27.3 11.9455 28.2535C12.6 28.7357 13.1455 29.1107 13.5273 29.3679C13.7319 29.4964 13.8818 29.5929 13.9909 29.6572C14.0318 29.7 14.0727 29.7214 14.1136 29.7428L14.1409 29.7643H14.1546V29.775ZM2.72727 11.4535C2.72727 6.34279 8.18182 2.14285 15 2.14285C21.8182 2.14285 27.2727 6.34279 27.2727 11.4535C27.2727 15.5785 24.1227 19.7035 20.7682 22.8964C19.1045 24.4714 17.4546 25.7786 16.2 26.6786C15.7364 27.0214 15.3273 27.3106 15 27.5356C14.6727 27.3106 14.2636 27.0214 13.8 26.6786C12.5454 25.7786 10.8955 24.4714 9.23184 22.8964C5.8773 19.7035 2.72727 15.5785 2.72727 11.4535Z" fill="#38AB9E"/>
</svg>
