<svg width="30" height="30" viewBox="0 0 30 30" fill="none" xmlns="http://www.w3.org/2000/svg">
<path d="M15.6249 28.4374H5.0999C3.1374 28.4374 1.5249 26.8624 1.5249 24.9124V6.36237C1.5249 4.44987 2.2374 2.96237 3.5374 2.14987C4.8499 1.32487 6.5499 1.34987 8.3124 2.22487L13.8624 4.94987C15.3749 5.69987 16.5624 7.58737 16.5624 9.26237V27.4999C16.5624 28.0124 16.1374 28.4374 15.6249 28.4374ZM5.6999 3.43737C5.2624 3.43737 4.8624 3.53737 4.5249 3.74987C3.7999 4.19987 3.3999 5.13737 3.3999 6.36237V24.9124C3.3999 25.8249 4.1624 26.5624 5.0999 26.5624H14.6874V9.26237C14.6874 8.29987 13.9124 7.06237 13.0249 6.63737L7.4749 3.91237C6.8374 3.59987 6.2374 3.43737 5.6999 3.43737Z" fill="#38AB9E"/>
<path d="M23.5125 28.4376H15.625C15.1125 28.4376 14.6875 28.0126 14.6875 27.5001V13.0251C14.6875 12.7376 14.8125 12.4751 15.0375 12.3001C15.2625 12.1251 15.5375 12.0501 15.825 12.1126L16.4125 12.2376L24.5875 14.0626C27.075 14.6126 28.325 16.0751 28.4 18.5626C28.4125 18.5626 28.4125 18.6876 28.4125 18.8251V23.5501C28.4 26.7501 26.7125 28.4376 23.5125 28.4376ZM16.5625 26.5626H23.5125C25.7125 26.5626 26.525 25.7501 26.525 23.5501V18.7251C26.4625 17.0126 25.8125 16.2501 24.175 15.8876L16.5625 14.1876V26.5626Z" fill="#38AB9E"/>
<path d="M11.2125 12.1875H6.875C6.3625 12.1875 5.9375 11.7625 5.9375 11.25C5.9375 10.7375 6.3625 10.3125 6.875 10.3125H11.2125C11.725 10.3125 12.15 10.7375 12.15 11.25C12.15 11.7625 11.7375 12.1875 11.2125 12.1875Z" fill="#38AB9E"/>
<path d="M11.2125 17.1875H6.875C6.3625 17.1875 5.9375 16.7625 5.9375 16.25C5.9375 15.7375 6.3625 15.3125 6.875 15.3125H11.2125C11.725 15.3125 12.15 15.7375 12.15 16.25C12.15 16.7625 11.7375 17.1875 11.2125 17.1875Z" fill="#38AB9E"/>
<path d="M19.0249 22.1876C16.9624 22.1876 15.2749 20.5001 15.2749 18.4376V13.1501C15.2749 12.8626 15.3999 12.6001 15.6249 12.4126C15.8499 12.2251 16.1374 12.1626 16.4124 12.2251L22.0374 13.4876C22.4624 13.5876 22.7749 13.9626 22.7749 14.4001V18.4251C22.7749 20.5001 21.0999 22.1876 19.0249 22.1876ZM17.1499 14.3251V18.4376C17.1499 19.4751 17.9874 20.3126 19.0249 20.3126C20.0624 20.3126 20.8999 19.4751 20.8999 18.4376V15.1626L17.1499 14.3251Z" fill="#38AB9E"/>
<path d="M24.6499 22.1873C22.5874 22.1873 20.8999 20.4998 20.8999 18.4373V14.4123C20.8999 14.1248 21.0249 13.8623 21.2499 13.6873C21.4749 13.5123 21.7624 13.4373 22.0374 13.4998L24.5749 14.0623C27.0624 14.6123 28.3124 16.0748 28.3874 18.5623C28.3874 18.5873 28.3874 18.6123 28.3874 18.6373C28.2874 20.6248 26.6499 22.1873 24.6499 22.1873ZM22.7749 15.5748V18.4373C22.7749 19.4748 23.6124 20.3123 24.6499 20.3123C25.6374 20.3123 26.4499 19.5498 26.5124 18.5748C26.4499 16.9998 25.7999 16.2498 24.1749 15.8873L22.7749 15.5748Z" fill="#38AB9E"/>
</svg>
