<svg width="30" height="30" viewBox="0 0 30 30" fill="none" xmlns="http://www.w3.org/2000/svg">
<path d="M23.75 10.9375C21.1625 10.9375 19.0625 8.8375 19.0625 6.25C19.0625 3.6625 21.1625 1.5625 23.75 1.5625C26.3375 1.5625 28.4375 3.6625 28.4375 6.25C28.4375 8.8375 26.3375 10.9375 23.75 10.9375ZM23.75 3.4375C22.2 3.4375 20.9375 4.7 20.9375 6.25C20.9375 7.8 22.2 9.0625 23.75 9.0625C25.3 9.0625 26.5625 7.8 26.5625 6.25C26.5625 4.7 25.3 3.4375 23.75 3.4375Z" fill="#38AB9E"/>
<path d="M18.75 28.4375H11.25C4.4625 28.4375 1.5625 25.5375 1.5625 18.75V11.25C1.5625 4.4625 4.4625 1.5625 11.25 1.5625H17.5C18.0125 1.5625 18.4375 1.9875 18.4375 2.5C18.4375 3.0125 18.0125 3.4375 17.5 3.4375H11.25C5.4875 3.4375 3.4375 5.4875 3.4375 11.25V18.75C3.4375 24.5125 5.4875 26.5625 11.25 26.5625H18.75C24.5125 26.5625 26.5625 24.5125 26.5625 18.75V12.5C26.5625 11.9875 26.9875 11.5625 27.5 11.5625C28.0125 11.5625 28.4375 11.9875 28.4375 12.5V18.75C28.4375 25.5375 25.5375 28.4375 18.75 28.4375Z" fill="#38AB9E"/>
</svg>
