<svg width="45" height="45" viewBox="0 0 45 45" fill="none" xmlns="http://www.w3.org/2000/svg">
<path d="M22.5 42.6562C11.3813 42.6562 2.34375 33.6187 2.34375 22.5C2.34375 11.3813 11.3813 2.34375 22.5 2.34375C33.6187 2.34375 42.6562 11.3813 42.6562 22.5C42.6562 33.6187 33.6187 42.6562 22.5 42.6562ZM22.5 5.15625C12.9375 5.15625 5.15625 12.9375 5.15625 22.5C5.15625 32.0625 12.9375 39.8438 22.5 39.8438C32.0625 39.8438 39.8438 32.0625 39.8438 22.5C39.8438 12.9375 32.0625 5.15625 22.5 5.15625Z" fill="#38AB9E"/>
<path d="M19.8377 29.2125C19.4627 29.2125 19.1064 29.0625 18.8439 28.8L13.5377 23.4938C12.9939 22.95 12.9939 22.05 13.5377 21.5063C14.0814 20.9625 14.9814 20.9625 15.5252 21.5063L19.8377 25.8188L29.4752 16.1813C30.0189 15.6375 30.9189 15.6375 31.4627 16.1813C32.0064 16.725 32.0064 17.625 31.4627 18.1687L20.8314 28.8C20.5689 29.0625 20.2127 29.2125 19.8377 29.2125Z" fill="#38AB9E"/>
</svg>
