<svg width="45" height="45" viewBox="0 0 45 45" fill="none" xmlns="http://www.w3.org/2000/svg">
<path d="M10.3877 36.6002C9.24397 36.6002 8.17522 36.2064 7.40647 35.4752C6.43147 34.5564 5.96272 33.1689 6.13147 31.6689L6.82522 25.5939C6.95647 24.4502 7.65022 22.9314 8.45647 22.1064L23.8502 5.81265C27.694 1.7439 31.7065 1.6314 35.7752 5.47515C39.844 9.3189 39.9565 13.3314 36.1127 17.4002L20.719 33.6939C19.9315 34.5377 18.469 35.3252 17.3252 35.5127L11.2877 36.5439C10.969 36.5627 10.6877 36.6002 10.3877 36.6002ZM29.869 5.4564C28.4252 5.4564 27.169 6.3564 25.894 7.7064L10.5002 24.0189C10.1252 24.4127 9.69397 25.3502 9.61897 25.8939L8.92522 31.9689C8.85022 32.5877 9.00022 33.0939 9.33772 33.4127C9.67522 33.7314 10.1815 33.8439 10.8002 33.7502L16.8377 32.7189C17.3815 32.6252 18.2815 32.1377 18.6565 31.7439L34.0502 15.4502C36.3752 12.9752 37.219 10.6877 33.8252 7.50015C32.3252 6.0564 31.0315 5.4564 29.869 5.4564Z" fill="#38AB9E"/>
<path d="M32.5123 20.5311C32.4748 20.5311 32.4186 20.5311 32.3811 20.5311C26.5311 19.9498 21.8248 15.5061 20.9248 9.69359C20.8123 8.92484 21.3373 8.21234 22.1061 8.08109C22.8748 7.96859 23.5873 8.49359 23.7186 9.26234C24.4311 13.7998 28.1061 17.2873 32.6811 17.7373C33.4498 17.8123 34.0123 18.5061 33.9373 19.2748C33.8436 19.9873 33.2248 20.5311 32.5123 20.5311Z" fill="#38AB9E"/>
<path d="M39.375 42.6562H5.625C4.85625 42.6562 4.21875 42.0187 4.21875 41.25C4.21875 40.4812 4.85625 39.8438 5.625 39.8438H39.375C40.1437 39.8438 40.7812 40.4812 40.7812 41.25C40.7812 42.0187 40.1437 42.6562 39.375 42.6562Z" fill="#38AB9E"/>
</svg>
