<svg width="30" height="30" viewBox="0 0 30 30" fill="none" xmlns="http://www.w3.org/2000/svg">
<path fill-rule="evenodd" clip-rule="evenodd" d="M0.0643485 13.5536C0.0214913 13.6715 0 13.8 0 13.9286C0 14.025 0.0107352 14.1107 0.0214495 14.2072C0.0107352 14.4643 0 14.7321 0 15C0 23.2821 6.71786 30 15 30C23.2821 30 30 23.2821 30 15C30 14.7321 29.9893 14.4643 29.9785 14.2072C29.9893 14.1107 30 14.025 30 13.9286C30 13.8 29.9785 13.6715 29.9357 13.5536C29.1964 5.94645 22.8 0 15 0C7.2 0 0.803634 5.94645 0.0643485 13.5536ZM15 2.14286C13.8964 2.14286 12.5572 3.16069 11.4322 5.60355C10.3393 7.94998 9.64286 11.2714 9.64286 15C9.64286 15.2786 9.64287 15.5464 9.65358 15.825C11.2822 15.9857 13.0929 16.0714 15 16.0714C16.9071 16.0714 18.7178 15.9857 20.3464 15.825C20.3571 15.5464 20.3571 15.2786 20.3571 15C20.3571 11.2714 19.6607 7.94998 18.5678 5.60355C17.4428 3.16069 16.1036 2.14286 15 2.14286ZM20.2071 17.9893C18.5893 18.1393 16.8321 18.2143 15 18.2143C13.1679 18.2143 11.4107 18.1393 9.79287 17.9893C10.0607 20.4858 10.6393 22.7036 11.4322 24.3965C12.5572 26.8393 13.8964 27.8571 15 27.8571C16.1036 27.8571 17.4428 26.8393 18.5678 24.3965C19.3607 22.7036 19.9393 20.4858 20.2071 17.9893ZM7.5 15.5572C7.5 15.375 7.5 15.1821 7.5 15C7.5 11.0357 8.23926 7.39287 9.48212 4.70359C9.76069 4.09287 10.0821 3.51432 10.4357 2.9786C5.91428 4.69289 2.61433 8.89283 2.18576 13.8964C2.27147 13.9821 2.42143 14.1 2.67857 14.2393C3.25714 14.5608 4.16789 14.8715 5.38932 15.1607C6.03217 15.3 6.73929 15.4393 7.5 15.5572ZM2.2178 16.3929C2.9678 16.7251 3.88924 17.0035 4.9071 17.25C5.7321 17.4321 6.63213 17.6036 7.61784 17.7322C7.87498 20.6251 8.52855 23.2393 9.48212 25.2964C9.76069 25.9071 10.0821 26.4857 10.4357 27.0214C5.99999 25.3393 2.7428 21.2786 2.2178 16.3929ZM27.8142 13.8964C27.3857 8.89283 24.0857 4.69289 19.5643 2.9786C19.9179 3.51432 20.2393 4.09287 20.5179 4.70359C21.7607 7.39287 22.5 11.0357 22.5 15C22.5 15.1821 22.5 15.375 22.5 15.5572C23.2607 15.4393 23.9678 15.3 24.6107 15.1607C25.8321 14.8715 26.7429 14.5608 27.3214 14.2393C27.5786 14.1 27.7285 13.9821 27.8142 13.8964ZM27.7822 16.3929C27.0322 16.7251 26.1108 17.0035 25.0929 17.25C24.2679 17.4321 23.3679 17.6036 22.3822 17.7322C22.125 20.6251 21.4715 23.2393 20.5179 25.2964C20.2393 25.9071 19.9179 26.4857 19.5643 27.0214C24 25.3393 27.2572 21.2786 27.7822 16.3929Z" fill="#38AB9E"/>
</svg>
