<svg width="204" height="208" viewBox="0 0 204 208" fill="none" xmlns="http://www.w3.org/2000/svg">
<g filter="url(#filter0_d_1_12)">
<path d="M104 200C90.8678 200 77.8642 197.413 65.7317 192.388C53.5991 187.362 42.5752 179.997 33.2893 170.711C24.0035 161.425 16.6375 150.401 11.6121 138.268C6.58659 126.136 4.00001 113.132 4.00001 100C4.00001 86.8678 6.58659 73.8642 11.6121 61.7317C16.6375 49.5991 24.0035 38.5752 33.2893 29.2893C42.5752 20.0035 53.5991 12.6375 65.7317 7.61205C77.8642 2.58658 90.8678 1.53618e-06 104 3.25826e-06L104 20C93.4943 20 83.0914 22.0693 73.3853 26.0896C63.6793 30.11 54.8602 36.0028 47.4315 43.4315C40.0028 50.8601 34.11 59.6793 30.0897 69.3853C26.0693 79.0914 24 89.4942 24 100C24 110.506 26.0693 120.909 30.0896 130.615C34.11 140.321 40.0028 149.14 47.4315 156.569C54.8601 163.997 63.6793 169.89 73.3853 173.91C83.0914 177.931 93.4943 180 104 180L104 200Z" fill="url(#paint0_linear_1_12)"/>
</g>
<path d="M104 1.19249e-06C117.132 1.34909e-06 130.136 2.58658 142.268 7.61205C154.401 12.6375 165.425 20.0035 174.711 29.2893C183.997 38.5752 191.362 49.5991 196.388 61.7317C201.413 73.8642 204 86.8678 204 100C204 113.132 201.413 126.136 196.388 138.268C191.362 150.401 183.997 161.425 174.711 170.711C165.425 179.997 154.401 187.362 142.268 192.388C130.136 197.413 117.132 200 104 200L104 180C114.506 180 124.909 177.931 134.615 173.91C144.321 169.89 153.14 163.997 160.569 156.569C167.997 149.14 173.89 140.321 177.91 130.615C181.931 120.909 184 110.506 184 100C184 89.4943 181.931 79.0914 177.91 69.3853C173.89 59.6793 167.997 50.8602 160.569 43.4315C153.14 36.0028 144.321 30.11 134.615 26.0896C124.909 22.0693 114.506 20 104 20L104 1.19249e-06Z" fill="white"/>
<g filter="url(#filter1_d_1_12)">
<path d="M104 25.0001C113.849 25.0001 123.602 26.94 132.701 30.7091C141.801 34.4782 150.069 40.0026 157.033 46.9671C163.997 53.9314 169.522 62.1994 173.291 71.2988C177.06 80.3982 179 90.1509 179 100C179 109.849 177.06 119.602 173.291 128.701C169.522 137.801 163.997 146.069 157.033 153.033C150.069 159.997 141.801 165.522 132.701 169.291C123.602 173.06 113.849 175 104 175L104 154.75C111.19 154.75 118.309 153.334 124.952 150.582C131.594 147.831 137.63 143.798 142.714 138.714C147.798 133.63 151.831 127.595 154.582 120.952C157.334 114.309 158.75 107.19 158.75 100C158.75 92.8102 157.334 85.6907 154.582 79.0481C151.831 72.4056 147.798 66.37 142.714 61.286C137.63 56.202 131.594 52.1691 124.952 49.4177C118.309 46.6662 111.19 45.2501 104 45.2501L104 25.0001Z" fill="url(#paint1_linear_1_12)"/>
</g>
<path d="M104 175C94.1508 175 84.3982 173.06 75.2987 169.291C66.1993 165.522 57.9314 159.997 50.967 153.033C44.0026 146.069 38.4781 137.801 34.709 128.701C30.9399 119.602 29 109.849 29 100C29 90.1508 30.9399 80.3982 34.709 71.2987C38.4781 62.1993 44.0026 53.9314 50.967 46.967C57.9314 40.0026 66.1993 34.4781 75.2987 30.709C84.3982 26.9399 94.1509 25 104 25L104 45.25C96.8101 45.25 89.6907 46.6661 83.0481 49.4176C76.4055 52.169 70.3699 56.2019 65.2859 61.2859C60.2019 66.3699 56.169 72.4055 53.4176 79.0481C50.6662 85.6906 49.25 92.8101 49.25 100C49.25 107.19 50.6661 114.309 53.4176 120.952C56.169 127.594 60.2019 133.63 65.2859 138.714C70.3699 143.798 76.4055 147.831 83.0481 150.582C89.6907 153.334 96.8101 154.75 104 154.75L104 175Z" fill="white"/>
<g filter="url(#filter2_d_1_12)">
<path d="M104 150C94.111 150 84.444 147.068 76.2215 141.574C67.9991 136.079 61.5904 128.271 57.8061 119.134C54.0217 109.998 53.0315 99.9446 54.9608 90.2455C56.89 80.5465 61.6521 71.6373 68.6447 64.6447C75.6373 57.6521 84.5465 52.89 94.2455 50.9608C103.945 49.0315 113.998 50.0217 123.134 53.8061C132.271 57.5904 140.079 63.9991 145.574 72.2215C151.068 80.444 154 90.111 154 100L133.5 100C133.5 94.1655 131.77 88.462 128.528 83.6107C125.287 78.7595 120.68 74.9784 115.289 72.7456C109.899 70.5128 103.967 69.9286 98.2449 71.0669C92.5224 72.2051 87.266 75.0147 83.1404 79.1404C79.0147 83.266 76.2051 88.5224 75.0669 94.2449C73.9286 99.9673 74.5128 105.899 76.7456 111.289C78.9784 116.68 82.7595 121.287 87.6107 124.528C92.462 127.77 98.1655 129.5 104 129.5L104 150Z" fill="url(#paint2_linear_1_12)"/>
</g>
<g filter="url(#filter3_d_1_12)">
<circle cx="104" cy="100" r="25" transform="rotate(90 104 100)" fill="url(#paint3_linear_1_12)"/>
</g>
<defs>
<filter id="filter0_d_1_12" x="7.62939e-06" y="0" width="108" height="208" filterUnits="userSpaceOnUse" color-interpolation-filters="sRGB">
<feFlood flood-opacity="0" result="BackgroundImageFix"/>
<feColorMatrix in="SourceAlpha" type="matrix" values="0 0 0 0 0 0 0 0 0 0 0 0 0 0 0 0 0 0 127 0" result="hardAlpha"/>
<feOffset dy="4"/>
<feGaussianBlur stdDeviation="2"/>
<feComposite in2="hardAlpha" operator="out"/>
<feColorMatrix type="matrix" values="0 0 0 0 0 0 0 0 0 0 0 0 0 0 0 0 0 0 0.25 0"/>
<feBlend mode="normal" in2="BackgroundImageFix" result="effect1_dropShadow_1_12"/>
<feBlend mode="normal" in="SourceGraphic" in2="effect1_dropShadow_1_12" result="shape"/>
</filter>
<filter id="filter1_d_1_12" x="100" y="25.0001" width="83" height="158" filterUnits="userSpaceOnUse" color-interpolation-filters="sRGB">
<feFlood flood-opacity="0" result="BackgroundImageFix"/>
<feColorMatrix in="SourceAlpha" type="matrix" values="0 0 0 0 0 0 0 0 0 0 0 0 0 0 0 0 0 0 127 0" result="hardAlpha"/>
<feOffset dy="4"/>
<feGaussianBlur stdDeviation="2"/>
<feComposite in2="hardAlpha" operator="out"/>
<feColorMatrix type="matrix" values="0 0 0 0 0 0 0 0 0 0 0 0 0 0 0 0 0 0 0.25 0"/>
<feBlend mode="normal" in2="BackgroundImageFix" result="effect1_dropShadow_1_12"/>
<feBlend mode="normal" in="SourceGraphic" in2="effect1_dropShadow_1_12" result="shape"/>
</filter>
<filter id="filter2_d_1_12" x="50" y="50" width="108" height="108" filterUnits="userSpaceOnUse" color-interpolation-filters="sRGB">
<feFlood flood-opacity="0" result="BackgroundImageFix"/>
<feColorMatrix in="SourceAlpha" type="matrix" values="0 0 0 0 0 0 0 0 0 0 0 0 0 0 0 0 0 0 127 0" result="hardAlpha"/>
<feOffset dy="4"/>
<feGaussianBlur stdDeviation="2"/>
<feComposite in2="hardAlpha" operator="out"/>
<feColorMatrix type="matrix" values="0 0 0 0 0 0 0 0 0 0 0 0 0 0 0 0 0 0 0.25 0"/>
<feBlend mode="normal" in2="BackgroundImageFix" result="effect1_dropShadow_1_12"/>
<feBlend mode="normal" in="SourceGraphic" in2="effect1_dropShadow_1_12" result="shape"/>
</filter>
<filter id="filter3_d_1_12" x="75" y="75" width="58" height="58" filterUnits="userSpaceOnUse" color-interpolation-filters="sRGB">
<feFlood flood-opacity="0" result="BackgroundImageFix"/>
<feColorMatrix in="SourceAlpha" type="matrix" values="0 0 0 0 0 0 0 0 0 0 0 0 0 0 0 0 0 0 127 0" result="hardAlpha"/>
<feOffset dy="4"/>
<feGaussianBlur stdDeviation="2"/>
<feComposite in2="hardAlpha" operator="out"/>
<feColorMatrix type="matrix" values="0 0 0 0 0 0 0 0 0 0 0 0 0 0 0 0 0 0 0.25 0"/>
<feBlend mode="normal" in2="BackgroundImageFix" result="effect1_dropShadow_1_12"/>
<feBlend mode="normal" in="SourceGraphic" in2="effect1_dropShadow_1_12" result="shape"/>
</filter>
<linearGradient id="paint0_linear_1_12" x1="104" y1="3.25826e-06" x2="104" y2="200" gradientUnits="userSpaceOnUse">
<stop stop-color="#37E9FD"/>
<stop offset="1" stop-color="#0643EE"/>
</linearGradient>
<linearGradient id="paint1_linear_1_12" x1="104" y1="175" x2="104" y2="25.0001" gradientUnits="userSpaceOnUse">
<stop stop-color="#37E9FD"/>
<stop offset="1" stop-color="#0643EE"/>
</linearGradient>
<linearGradient id="paint2_linear_1_12" x1="104" y1="50" x2="104" y2="150" gradientUnits="userSpaceOnUse">
<stop stop-color="#37E9FD"/>
<stop offset="1" stop-color="#0643EE"/>
</linearGradient>
<linearGradient id="paint3_linear_1_12" x1="79" y1="100" x2="129" y2="100" gradientUnits="userSpaceOnUse">
<stop stop-color="#37E9FD"/>
<stop offset="1" stop-color="#0643EE"/>
</linearGradient>
</defs>
</svg>
