<svg width="200" height="200" viewBox="0 0 200 200" fill="none" xmlns="http://www.w3.org/2000/svg">
<path d="M100 0C86.8678 -1.566e-07 73.8642 2.58658 61.7317 7.61205C49.5991 12.6375 38.5752 20.0035 29.2893 29.2893C20.0035 38.5752 12.6375 49.5991 7.61205 61.7317C2.58658 73.8642 -4.17426e-07 86.8678 0 100C4.17426e-07 113.132 2.58658 126.136 7.61205 138.268C12.6375 150.401 20.0035 161.425 29.2893 170.711C38.5752 179.997 49.5991 187.362 61.7317 192.388C73.8642 197.413 86.8678 200 100 200L100 100V0Z" fill="url(#paint0_linear_5_62)"/>
<path d="M100 200C126.522 200 151.957 189.464 170.711 170.711C189.464 151.957 200 126.522 200 100C200 73.4784 189.464 48.043 170.711 29.2893C151.957 10.5357 126.522 4.88088e-06 100 1.19249e-06L100 100L100 200Z" fill="white"/>
<path d="M100 175C109.849 175 119.602 173.06 128.701 169.291C137.801 165.522 146.069 159.997 153.033 153.033C159.997 146.069 165.522 137.801 169.291 128.701C173.06 119.602 175 109.849 175 100C175 90.1509 173.06 80.3982 169.291 71.2987C165.522 62.1993 159.997 53.9314 153.033 46.967C146.069 40.0026 137.801 34.4781 128.701 30.709C119.602 26.9399 109.849 25 100 25L100 100L100 175Z" fill="url(#paint1_linear_5_62)"/>
<path d="M100 25C80.1088 25 61.0322 32.9018 46.967 46.967C32.9018 61.0322 25 80.1088 25 100C25 119.891 32.9018 138.968 46.967 153.033C61.0322 167.098 80.1088 175 100 175L100 100L100 25Z" fill="white"/>
<path d="M150 100C150 90.1109 147.068 80.4439 141.573 72.2215C136.079 63.999 128.27 57.5904 119.134 53.806C109.998 50.0216 99.9445 49.0315 90.2455 50.9607C80.5464 52.89 71.6373 57.652 64.6447 64.6447C57.652 71.6373 52.89 80.5464 50.9607 90.2455C49.0315 99.9445 50.0216 109.998 53.806 119.134C57.5904 128.27 63.999 136.079 72.2215 141.573C80.4439 147.068 90.1109 150 100 150L100 100L150 100Z" fill="url(#paint2_linear_5_62)"/>
<path d="M100 150C106.566 150 113.068 148.707 119.134 146.194C125.2 143.681 130.712 139.998 135.355 135.355C139.998 130.712 143.681 125.2 146.194 119.134C148.707 113.068 150 106.566 150 100L100 100L100 150Z" fill="white"/>
<circle cx="100" cy="100" r="25" transform="rotate(-150 100 100)" fill="url(#paint3_linear_5_62)"/>
<defs>
<linearGradient id="paint0_linear_5_62" x1="100" y1="0" x2="100" y2="200" gradientUnits="userSpaceOnUse">
<stop stop-color="#37E9FD"/>
<stop offset="1" stop-color="#0746EF"/>
</linearGradient>
<linearGradient id="paint1_linear_5_62" x1="100" y1="175" x2="100" y2="25" gradientUnits="userSpaceOnUse">
<stop stop-color="#37E9FD"/>
<stop offset="1" stop-color="#0746EF"/>
</linearGradient>
<linearGradient id="paint2_linear_5_62" x1="100" y1="50" x2="100" y2="150" gradientUnits="userSpaceOnUse">
<stop stop-color="#37E9FD"/>
<stop offset="1" stop-color="#0746EF"/>
</linearGradient>
<linearGradient id="paint3_linear_5_62" x1="100" y1="75" x2="100" y2="125" gradientUnits="userSpaceOnUse">
<stop stop-color="#37E9FD"/>
<stop offset="1" stop-color="#0746EF"/>
</linearGradient>
</defs>
</svg>
