<svg width="204" height="208" viewBox="0 0 204 208" fill="none" xmlns="http://www.w3.org/2000/svg">
<path d="M104 50C131.614 50 154 72.3857 154 100C154 127.614 131.614 150 104 150C76.3858 150 54 127.614 54 100C54 72.3857 76.3858 50 104 50ZM104 130C120.569 130 134 116.569 134 100C134 83.4314 120.569 70 104 70C87.4315 70 74 83.4314 74 100C74 116.569 87.4315 130 104 130Z" fill="white"/>
<g filter="url(#filter0_d_4_31)">
<path d="M103 50C93.111 50 83.444 52.9324 75.2215 58.4265C66.999 63.9206 60.5904 71.7295 56.806 80.8658C53.0217 90.0021 52.0315 100.055 53.9608 109.755C55.89 119.454 60.6521 128.363 67.6447 135.355C74.6373 142.348 83.5465 147.11 93.2455 149.039C102.945 150.969 112.998 149.978 122.134 146.194C131.27 142.41 139.079 136.001 144.574 127.779C150.068 119.556 153 109.889 153 100L133 100C133 105.933 131.241 111.734 127.944 116.667C124.648 121.601 119.962 125.446 114.481 127.716C108.999 129.987 102.967 130.581 97.1473 129.424C91.3279 128.266 85.9824 125.409 81.7868 121.213C77.5912 117.018 74.734 111.672 73.5765 105.853C72.4189 100.033 73.013 94.0013 75.2836 88.5195C77.5543 83.0377 81.3994 78.3524 86.3329 75.0559C91.2664 71.7595 97.0666 70 103 70L103 50Z" fill="url(#paint0_linear_4_31)"/>
</g>
<g filter="url(#filter1_d_4_31)">
<circle cx="103" cy="100" r="25" transform="rotate(-180 103 100)" fill="url(#paint1_linear_4_31)"/>
</g>
<path d="M102.007 174.987C60.5888 174.434 27.4609 140.411 28.0133 98.9933C28.5656 57.5756 62.589 24.4477 104.007 25.0001C145.424 25.5524 178.552 59.5758 178 100.994C177.448 142.411 143.424 175.539 102.007 174.987ZM103.737 45.2483C73.5018 44.8451 48.6647 69.0284 48.2615 99.2633C47.8583 129.498 72.0416 154.335 102.277 154.739C132.511 155.142 157.349 130.958 157.752 100.723C158.155 70.4886 133.972 45.6515 103.737 45.2483Z" fill="white"/>
<g filter="url(#filter2_d_4_31)">
<path d="M102.007 174.987C111.855 175.118 121.632 173.308 130.781 169.661C139.93 166.014 148.271 160.6 155.328 153.729C162.384 146.858 168.019 138.664 171.909 129.616C175.799 120.568 177.869 110.842 178 100.994C178.131 91.1452 176.322 81.3675 172.674 72.2187C169.027 63.0698 163.613 54.7289 156.742 47.6723C149.871 40.6157 141.678 34.9814 132.629 31.0913C123.581 27.2012 113.855 25.1314 104.007 25.0001L103.737 45.2483C110.926 45.3442 118.026 46.8551 124.631 49.6949C131.236 52.5347 137.218 56.6476 142.233 61.799C147.249 66.9503 151.201 73.0392 153.864 79.7179C156.527 86.3965 157.848 93.5343 157.752 100.723C157.656 107.913 156.145 115.013 153.305 121.618C150.465 128.223 146.352 134.205 141.201 139.22C136.05 144.236 129.961 148.188 123.282 150.851C116.603 153.513 109.466 154.834 102.277 154.739L102.007 174.987Z" fill="url(#paint2_linear_4_31)"/>
</g>
<path d="M104 -4.37114e-06C159.228 -6.78525e-06 204 44.7715 204 100C204 155.228 159.228 200 104 200C48.7715 200 4.00002 155.228 4.00002 100C4.00002 44.7715 48.7715 -1.95703e-06 104 -4.37114e-06ZM104 179C147.631 179 183 143.63 183 100C183 56.3695 147.631 21 104 21C60.3695 21 25 56.3695 25 100C25 143.63 60.3695 179 104 179Z" fill="white"/>
<g filter="url(#filter3_d_4_31)">
<path d="M104 -4.37114e-06C90.8678 -3.79711e-06 77.8642 2.58658 65.7317 7.61204C53.5991 12.6375 42.5752 20.0035 33.2893 29.2893C24.0035 38.5752 16.6375 49.5991 11.6121 61.7317C6.58659 73.8642 4.00002 86.8678 4.00002 100C4.00002 113.132 6.5866 126.136 11.6121 138.268C16.6375 150.401 24.0035 161.425 33.2893 170.711C42.5752 179.997 53.5991 187.362 65.7317 192.388C77.8642 197.413 90.8678 200 104 200L104 179C93.6256 179 83.3528 176.957 73.768 172.986C64.1833 169.016 55.4744 163.197 48.1386 155.861C40.8028 148.526 34.9837 139.817 31.0135 130.232C27.0434 120.647 25 110.374 25 100C25 89.6256 27.0434 79.3527 31.0135 69.768C34.9837 60.1833 40.8028 51.4744 48.1386 44.1386C55.4744 36.8027 64.1833 30.9836 73.768 27.0135C83.3527 23.0434 93.6256 21 104 21L104 -4.37114e-06Z" fill="url(#paint3_linear_4_31)"/>
</g>
<defs>
<filter id="filter0_d_4_31" x="49" y="50" width="108" height="108" filterUnits="userSpaceOnUse" color-interpolation-filters="sRGB">
<feFlood flood-opacity="0" result="BackgroundImageFix"/>
<feColorMatrix in="SourceAlpha" type="matrix" values="0 0 0 0 0 0 0 0 0 0 0 0 0 0 0 0 0 0 127 0" result="hardAlpha"/>
<feOffset dy="4"/>
<feGaussianBlur stdDeviation="2"/>
<feComposite in2="hardAlpha" operator="out"/>
<feColorMatrix type="matrix" values="0 0 0 0 0 0 0 0 0 0 0 0 0 0 0 0 0 0 0.25 0"/>
<feBlend mode="normal" in2="BackgroundImageFix" result="effect1_dropShadow_4_31"/>
<feBlend mode="normal" in="SourceGraphic" in2="effect1_dropShadow_4_31" result="shape"/>
</filter>
<filter id="filter1_d_4_31" x="74" y="75" width="58" height="58" filterUnits="userSpaceOnUse" color-interpolation-filters="sRGB">
<feFlood flood-opacity="0" result="BackgroundImageFix"/>
<feColorMatrix in="SourceAlpha" type="matrix" values="0 0 0 0 0 0 0 0 0 0 0 0 0 0 0 0 0 0 127 0" result="hardAlpha"/>
<feOffset dy="4"/>
<feGaussianBlur stdDeviation="2"/>
<feComposite in2="hardAlpha" operator="out"/>
<feColorMatrix type="matrix" values="0 0 0 0 0 0 0 0 0 0 0 0 0 0 0 0 0 0 0.25 0"/>
<feBlend mode="normal" in2="BackgroundImageFix" result="effect1_dropShadow_4_31"/>
<feBlend mode="normal" in="SourceGraphic" in2="effect1_dropShadow_4_31" result="shape"/>
</filter>
<filter id="filter2_d_4_31" x="98.0065" y="25.0001" width="84.0001" height="157.993" filterUnits="userSpaceOnUse" color-interpolation-filters="sRGB">
<feFlood flood-opacity="0" result="BackgroundImageFix"/>
<feColorMatrix in="SourceAlpha" type="matrix" values="0 0 0 0 0 0 0 0 0 0 0 0 0 0 0 0 0 0 127 0" result="hardAlpha"/>
<feOffset dy="4"/>
<feGaussianBlur stdDeviation="2"/>
<feComposite in2="hardAlpha" operator="out"/>
<feColorMatrix type="matrix" values="0 0 0 0 0 0 0 0 0 0 0 0 0 0 0 0 0 0 0.25 0"/>
<feBlend mode="normal" in2="BackgroundImageFix" result="effect1_dropShadow_4_31"/>
<feBlend mode="normal" in="SourceGraphic" in2="effect1_dropShadow_4_31" result="shape"/>
</filter>
<filter id="filter3_d_4_31" x="1.52588e-05" y="0" width="108" height="208" filterUnits="userSpaceOnUse" color-interpolation-filters="sRGB">
<feFlood flood-opacity="0" result="BackgroundImageFix"/>
<feColorMatrix in="SourceAlpha" type="matrix" values="0 0 0 0 0 0 0 0 0 0 0 0 0 0 0 0 0 0 127 0" result="hardAlpha"/>
<feOffset dy="4"/>
<feGaussianBlur stdDeviation="2"/>
<feComposite in2="hardAlpha" operator="out"/>
<feColorMatrix type="matrix" values="0 0 0 0 0 0 0 0 0 0 0 0 0 0 0 0 0 0 0.25 0"/>
<feBlend mode="normal" in2="BackgroundImageFix" result="effect1_dropShadow_4_31"/>
<feBlend mode="normal" in="SourceGraphic" in2="effect1_dropShadow_4_31" result="shape"/>
</filter>
<linearGradient id="paint0_linear_4_31" x1="53" y1="100" x2="153" y2="100" gradientUnits="userSpaceOnUse">
<stop stop-color="#37E9FD"/>
<stop offset="1" stop-color="#0643EE"/>
</linearGradient>
<linearGradient id="paint1_linear_4_31" x1="78" y1="100" x2="128" y2="100" gradientUnits="userSpaceOnUse">
<stop stop-color="#37E9FD"/>
<stop offset="1" stop-color="#0643EE"/>
</linearGradient>
<linearGradient id="paint2_linear_4_31" x1="178" y1="100.994" x2="28.0133" y2="98.9933" gradientUnits="userSpaceOnUse">
<stop stop-color="#37E9FD"/>
<stop offset="1" stop-color="#0643EE"/>
</linearGradient>
<linearGradient id="paint3_linear_4_31" x1="4.00002" y1="100" x2="204" y2="100" gradientUnits="userSpaceOnUse">
<stop stop-color="#37E9FD"/>
<stop offset="1" stop-color="#0643EE"/>
</linearGradient>
</defs>
</svg>
