<svg width="44" height="39" viewBox="0 0 44 39" fill="none" xmlns="http://www.w3.org/2000/svg">
<path d="M44 19.5C44 8.73045 35.2696 0 24.5 0H19.5C8.73045 0 0 8.73045 0 19.5C0 30.2696 8.73045 39 19.5 39H24.5C35.2696 39 44 30.2696 44 19.5Z" fill="#201C1D"/>
<path fill-rule="evenodd" clip-rule="evenodd" d="M21.9664 9.98389C15.9113 9.98389 11 14.3371 11 19.7041C11 23.9976 14.1621 27.6353 18.4679 28.9472C19.0061 29.0068 19.208 28.7087 19.208 28.4701C19.208 28.2316 19.208 27.6353 19.208 26.8004C16.1804 27.3967 15.5076 25.4885 15.5076 25.4885C15.0367 24.3554 14.2966 24.0573 14.2966 24.0573C13.2875 23.461 14.3639 23.461 14.3639 23.461C15.4404 23.5206 16.0459 24.4747 16.0459 24.4747C17.055 25.9655 18.6024 25.5481 19.208 25.3096C19.2752 24.6536 19.6116 24.2362 19.8807 23.9976C17.4587 23.7591 14.9021 22.9243 14.9021 19.1674C14.9021 18.094 15.3058 17.2591 16.0459 16.5435C15.9786 16.3646 15.5749 15.3509 16.1804 14.0389C16.1804 14.0389 17.1223 13.8004 19.208 15.0527C20.0826 14.8142 21.0245 14.7545 21.9664 14.7545C22.9083 14.7545 23.8502 14.8738 24.7248 15.0527C26.8104 13.8004 27.7523 14.0389 27.7523 14.0389C28.3578 15.3509 27.9541 16.3646 27.8869 16.6032C28.5596 17.2591 29.0306 18.1536 29.0306 19.227C29.0306 22.9839 26.474 23.7591 24.052 23.9976C24.4557 24.2958 24.792 24.8921 24.792 25.7866C24.792 27.0986 24.792 28.1123 24.792 28.4701C24.792 28.7087 24.9939 29.0068 25.5321 28.9472C29.9052 27.6353 33 23.9976 33 19.7041C32.9327 14.3371 28.0214 9.98389 21.9664 9.98389Z" fill="white"/>
</svg>
