<svg xmlns="http://www.w3.org/2000/svg" version="1.1" xmlns:xlink="http://www.w3.org/1999/xlink" xmlns:svgjs="http://svgjs.dev/svgjs" width="1000" height="1000"><g clip-path="url(#SvgjsClipPath1103)"><rect width="1000" height="1000" fill="#000000"></rect><g transform="matrix(2.889338341519792,0,0,2.889338341519792,50,314.28777809881535)"><svg xmlns="http://www.w3.org/2000/svg" version="1.1" xmlns:xlink="http://www.w3.org/1999/xlink" xmlns:svgjs="http://svgjs.dev/svgjs" width="311.49" height="128.55"><svg id="Слой_1" data-name="Слой 1" xmlns="http://www.w3.org/2000/svg" viewBox="0 0 311.49 128.55"><defs><style>.cls-1{fill:#f5f4f5;}.cls-2{fill:#38ab9e;}.cls-3{fill:#f5f5f5;}</style><clipPath id="SvgjsClipPath1103"><rect width="1000" height="1000" x="0" y="0" rx="500" ry="500"></rect></clipPath></defs><path class="cls-1" d="M48.47,100.41a42.31,42.31,0,0,1-15.94-2.92A36.27,36.27,0,0,1,20.1,89.27,37.21,37.21,0,0,1,12,76.7a43.07,43.07,0,0,1-2.88-16A42.7,42.7,0,0,1,12,44.77,37.29,37.29,0,0,1,20.1,32.25,36.27,36.27,0,0,1,32.53,24a42.11,42.11,0,0,1,15.94-2.92A41.78,41.78,0,0,1,64.36,24,36.55,36.55,0,0,1,84.9,44.77a42.89,42.89,0,0,1,2.87,15.94,43.27,43.27,0,0,1-2.87,16A36.44,36.44,0,0,1,64.36,97.49,42,42,0,0,1,48.47,100.41Zm0-9.31A29.59,29.59,0,0,0,60.3,88.78,28.32,28.32,0,0,0,75.74,72.69a34.76,34.76,0,0,0,0-24,28.4,28.4,0,0,0-6.09-9.65,28,28,0,0,0-9.35-6.39,30.1,30.1,0,0,0-11.83-2.28,30.06,30.06,0,0,0-11.83,2.28,27.43,27.43,0,0,0-9.31,6.39,29.34,29.34,0,0,0-6.09,9.65,34,34,0,0,0,0,24,29.44,29.44,0,0,0,6.09,9.65,28,28,0,0,0,9.31,6.44A29.55,29.55,0,0,0,48.47,91.1Zm27,6.73L54.8,77.14a5,5,0,1,1,7-7L82.52,90.9a5.25,5.25,0,0,1,1.54,3.47,4.63,4.63,0,0,1-1.54,3.46,4.68,4.68,0,0,1-7,0Z"></path><path class="cls-2" d="M157.17,99.42A5.07,5.07,0,0,1,152,94.27v-67a5,5,0,0,1,1.48-3.72,5.11,5.11,0,0,1,3.67-1.43,5,5,0,0,1,4.55,2.77l31,62.07h-3.17l30.2-62.07a5,5,0,0,1,4.55-2.77A5.09,5.09,0,0,1,228,23.53a5,5,0,0,1,1.49,3.72v67a4.87,4.87,0,0,1-1.54,3.66,5.13,5.13,0,0,1-8.76-3.66V41.5l2-.49L195.18,93.87a5.1,5.1,0,0,1-4.45,2.58A5,5,0,0,1,186,93.38L160.34,42l2-.5V94.27a5.09,5.09,0,0,1-5.15,5.15Z"></path><path class="cls-3" d="M101.87,96.47s1.07,4.14,5,3.93a5,5,0,0,0,5-4.56c0-1.38-.12-16.16.41-21.67.3-3.13,1.68-8.34,5.36-11.69,3.5-3.17,7-4.29,10.41-5.61,3-1.17,7.27-.62,6.89-5.77-.3-4-11.55-2.05-15.24-.76-3.14,1.11-11.74,6.51-13.87,10.93C104,65.09,101,71.19,101.87,96.47Z"></path><path class="cls-2" d="M271.66,90.84c2.59.07,7.07-.4,9.64-2.12,2-1.33,5-3,6.81-2.76,3.42.54,5,3.42,4.12,5.92-.73,2-9.42,6.83-14.75,7.33-8.18.78-15.72-.6-21.68-4.91-6.48-4.67-10.81-11.17-11.24-21.38-.47-11.31,3.94-18,9.39-22.9s13.76-6.23,20.55-5.61c8.18.74,13.86,6.06,16.59,9.06,2.47,2.71,4.86,8.3,5.37,11s1.14,9.12-2.42,10.6c-3.12,1.29-18.07.46-25.2.43-1.37,0-2.89-2.18-2.85-4.65.05-2.85,2.33-4.05,5.21-4.12,3.14-.09,15.62.29,15.43-.56a17.2,17.2,0,0,0-8.13-11.47c-4.75-2.74-11.3-2.12-16.43.56s-8.1,9.3-8.36,14.91.92,11.24,5.34,15.19C262.58,88.54,266.64,90.71,271.66,90.84Z"></path></svg></svg></g></g></svg>