<svg width="50" height="50" viewBox="0 0 50 50" fill="none" xmlns="http://www.w3.org/2000/svg">
<path d="M23.75 47.396H15.8333C6.6875 47.396 2.60416 43.3127 2.60416 34.1668V26.2502C2.60416 17.1043 6.6875 13.021 15.8333 13.021H22.0833C22.9375 13.021 23.6458 13.7293 23.6458 14.5835C23.6458 15.4377 22.9375 16.146 22.0833 16.146H15.8333C8.375 16.146 5.72916 18.7918 5.72916 26.2502V34.1668C5.72916 41.6252 8.375 44.271 15.8333 44.271H23.75C31.2083 44.271 33.8542 41.6252 33.8542 34.1668V27.9168C33.8542 27.0627 34.5625 26.3543 35.4167 26.3543C36.2708 26.3543 36.9792 27.0627 36.9792 27.9168V34.1668C36.9792 43.3127 32.8958 47.396 23.75 47.396Z" fill="#38AB9E"/>
<path d="M35.4167 29.4787H28.75C22.8958 29.4787 20.5208 27.1037 20.5208 21.2495V14.5829C20.5208 13.9579 20.8958 13.3745 21.4792 13.1454C22.0625 12.8954 22.7292 13.0412 23.1875 13.4787L36.5208 26.812C36.9583 27.2495 37.1042 27.937 36.8542 28.5204C36.625 29.1037 36.0417 29.4787 35.4167 29.4787ZM23.6458 18.3537V21.2495C23.6458 25.3954 24.6042 26.3537 28.75 26.3537H31.6458L23.6458 18.3537Z" fill="#38AB9E"/>
<path d="M32.4984 5.729H24.165C23.3109 5.729 22.6025 5.02067 22.6025 4.1665C22.6025 3.31234 23.3109 2.604 24.165 2.604H32.4984C33.3525 2.604 34.0609 3.31234 34.0609 4.1665C34.0609 5.02067 33.3525 5.729 32.4984 5.729Z" fill="#38AB9E"/>
<path d="M14.5833 11.979C13.7292 11.979 13.0208 11.2707 13.0208 10.4165C13.0208 6.104 16.5208 2.604 20.8333 2.604H26.2917C27.1458 2.604 27.8542 3.31234 27.8542 4.1665C27.8542 5.02067 27.1458 5.729 26.2917 5.729H20.8333C18.25 5.729 16.1458 7.83317 16.1458 10.4165C16.1458 11.2707 15.4375 11.979 14.5833 11.979Z" fill="#38AB9E"/>
<path d="M39.9772 36.979C39.123 36.979 38.4147 36.2707 38.4147 35.4165C38.4147 34.5623 39.123 33.854 39.9772 33.854C42.3522 33.854 44.2689 31.9165 44.2689 29.5623V16.6665C44.2689 15.8123 44.9772 15.104 45.8314 15.104C46.6855 15.104 47.3939 15.8123 47.3939 16.6665V29.5623C47.3939 33.6457 44.0605 36.979 39.9772 36.979Z" fill="#38AB9E"/>
<path d="M45.8333 18.2289H39.5833C34.0417 18.2289 31.7708 15.958 31.7708 10.4164V4.16636C31.7708 3.54136 32.1458 2.95802 32.7292 2.72886C33.3125 2.47886 33.9792 2.62469 34.4375 3.06219L46.9375 15.5622C47.375 15.9997 47.5208 16.6872 47.2708 17.2705C47.0417 17.8539 46.4583 18.2289 45.8333 18.2289ZM34.8958 7.93719V10.4164C34.8958 14.2289 35.7708 15.1039 39.5833 15.1039H42.0625L34.8958 7.93719Z" fill="#38AB9E"/>
</svg>
