<svg width="50" height="50" viewBox="0 0 50 50" fill="none" xmlns="http://www.w3.org/2000/svg">
<path d="M27.0814 24.4795C26.6855 24.4795 26.2897 24.3337 25.9772 24.0212C25.373 23.417 25.373 22.417 25.9772 21.8128L43.0605 4.72949C43.6647 4.12533 44.6647 4.12533 45.2689 4.72949C45.873 5.33366 45.873 6.33366 45.2689 6.93783L28.1855 24.0212C27.873 24.3337 27.4772 24.4795 27.0814 24.4795Z" fill="#38AB9E"/>
<path d="M45.8317 15.729C44.9775 15.729 44.2692 15.0207 44.2692 14.1665V5.729H35.8317C34.9775 5.729 34.2692 5.02067 34.2692 4.1665C34.2692 3.31234 34.9775 2.604 35.8317 2.604H45.8317C46.6859 2.604 47.3942 3.31234 47.3942 4.1665V14.1665C47.3942 15.0207 46.6859 15.729 45.8317 15.729Z" fill="#38AB9E"/>
<path d="M31.25 47.3957H18.75C7.4375 47.3957 2.60416 42.5623 2.60416 31.2498V18.7498C2.60416 7.43734 7.4375 2.604 18.75 2.604H22.9167C23.7708 2.604 24.4792 3.31234 24.4792 4.1665C24.4792 5.02067 23.7708 5.729 22.9167 5.729H18.75C9.14583 5.729 5.72916 9.14567 5.72916 18.7498V31.2498C5.72916 40.854 9.14583 44.2707 18.75 44.2707H31.25C40.8542 44.2707 44.2708 40.854 44.2708 31.2498V27.0832C44.2708 26.229 44.9792 25.5207 45.8333 25.5207C46.6875 25.5207 47.3958 26.229 47.3958 27.0832V31.2498C47.3958 42.5623 42.5625 47.3957 31.25 47.3957Z" fill="#38AB9E"/>
</svg>
