<svg width="50" height="50" viewBox="0 0 50 50" fill="none" xmlns="http://www.w3.org/2000/svg">
<path d="M31.25 47.3957H18.75C7.4375 47.3957 2.60416 42.5623 2.60416 31.2498V18.7498C2.60416 7.43734 7.4375 2.604 18.75 2.604H31.25C42.5625 2.604 47.3958 7.43734 47.3958 18.7498V31.2498C47.3958 42.5623 42.5625 47.3957 31.25 47.3957ZM18.75 5.729C9.14583 5.729 5.72916 9.14567 5.72916 18.7498V31.2498C5.72916 40.854 9.14583 44.2707 18.75 44.2707H31.25C40.8542 44.2707 44.2708 40.854 44.2708 31.2498V18.7498C44.2708 9.14567 40.8542 5.729 31.25 5.729H18.75Z" fill="#38AB9E"/>
<path d="M24.9999 31.7917C24.604 31.7917 24.2082 31.6458 23.8957 31.3333L17.6457 25.0833C17.0415 24.4792 17.0415 23.4792 17.6457 22.875C18.2499 22.2708 19.2499 22.2708 19.854 22.875L24.9999 28.0208L30.1457 22.875C30.7499 22.2708 31.7499 22.2708 32.354 22.875C32.9582 23.4792 32.9582 24.4792 32.354 25.0833L26.104 31.3333C25.7915 31.6458 25.3957 31.7917 24.9999 31.7917Z" fill="#38AB9E"/>
<path d="M25 31.7917C24.1458 31.7917 23.4375 31.0833 23.4375 30.2292V13.5625C23.4375 12.7083 24.1458 12 25 12C25.8542 12 26.5625 12.7083 26.5625 13.5625V30.2292C26.5625 31.1042 25.8542 31.7917 25 31.7917Z" fill="#38AB9E"/>
<path d="M24.9999 37.9793C20.6041 37.9793 16.1874 37.271 11.9999 35.8752C11.1874 35.6043 10.7499 34.7085 11.0207 33.896C11.2916 33.0835 12.1665 32.6252 12.9999 32.9168C20.7499 35.5002 29.2707 35.5002 37.0207 32.9168C37.8332 32.646 38.7291 33.0835 38.9999 33.896C39.2707 34.7085 38.8332 35.6043 38.0207 35.8752C33.8124 37.2918 29.3957 37.9793 24.9999 37.9793Z" fill="#38AB9E"/>
</svg>
